<?xml version="1.0" encoding="iso-8859-1"?>
<!-- Generator: Adobe Illustrator 19.0.0, SVG Export Plug-In . SVG Version: 6.00 Build 0)  -->
<svg version="1.1" id="Capa_1" xmlns="http://www.w3.org/2000/svg" xmlns:xlink="http://www.w3.org/1999/xlink" x="0px" y="0px"
	 viewBox="0 0 512 512" style="enable-background:new 0 0 512 512;" xml:space="preserve">
<path style="fill:#E4EAF8;" d="M268.65,57.961V20.4c0-6.609-5.17-12.296-11.779-12.399c-6.698-0.104-12.16,5.294-12.16,11.968
	c0,0.057-0.02,38.03,0.037,38.027C257.69,57.275,268.65,57.961,268.65,57.961z"/>
<path style="fill:#C2C7D0;" d="M259.461,19.97c0-3.791,1.765-7.167,4.516-9.36c-1.964-1.584-4.411-2.565-7.107-2.607
	c-6.698-0.104-12.16,5.294-12.16,11.968c0,0.057-0.02,38.03,0.037,38.027c6.166-0.344,10.172-0.365,14.714-0.301V19.97z"/>
<g>
	<path style="fill:#E4EAF8;" d="M359.824,496.186c1.872,6.832,9.287,10.634,16.032,7.935c5.711-2.285,8.571-8.731,6.945-14.664
		l-21.097-80.002c-0.004-0.015-0.018-0.026-0.034-0.026h-24.747c-0.023,0-0.04,0.022-0.034,0.045L359.824,496.186z"/>
	<path style="fill:#E4EAF8;" d="M137.567,504.148c6.764,2.656,14.11-1.181,15.968-7.961l22.934-86.713
		c0.006-0.022-0.011-0.045-0.034-0.045h-24.746c-0.016,0-0.03,0.011-0.034,0.026l-21.102,80.021
		C128.921,495.43,131.82,501.891,137.567,504.148z"/>
</g>
<g>
	<path style="fill:#C2C7D0;" d="M373.148,496.186l-22.934-86.713c-0.006-0.022,0.011-0.045,0.034-0.045h-13.324
		c-0.023,0-0.04,0.022-0.034,0.045l22.934,86.713c1.873,6.834,9.288,10.634,16.032,7.935c0.781-0.312,1.502-0.709,2.172-1.164
		C375.724,501.412,373.938,499.071,373.148,496.186z"/>
	<path style="fill:#C2C7D0;" d="M143.876,489.476l21.102-80.021c0.004-0.015,0.018-0.026,0.034-0.026h-13.324
		c-0.016,0-0.03,0.011-0.034,0.026l-21.102,80.021c-1.631,5.954,1.268,12.415,7.014,14.671c3.733,1.466,7.809,1.005,11.087-1.191
		C144.427,500.082,142.473,494.596,143.876,489.476z"/>
</g>
<path style="fill:#FFFFFF;" d="M461.955,412.43H51.405c-6.94,0-12.568-5.626-12.568-12.568V101.853c0-0.017,0.014-0.032,0.032-0.032
	h435.622c0.017,0,0.032,0.014,0.032,0.032v298.008C474.522,406.802,468.895,412.43,461.955,412.43z"/>
<path style="fill:#E4EAF8;" d="M58.839,399.862V101.853c0-0.017,0.014-0.032,0.031-0.032H38.868c-0.017,0-0.031,0.014-0.031,0.032
	v298.008c0,6.94,5.626,12.568,12.568,12.568h20.001C64.465,412.429,58.839,406.802,58.839,399.862z"/>
<path style="fill:#92E0C0;" d="M486.428,104.823H26.931c-6.617,0-12.033-5.414-12.033-12.033V64.685
	c0-6.617,5.414-12.033,12.033-12.033h459.497c6.617,0,12.033,5.414,12.033,12.033V92.79
	C498.461,99.408,493.046,104.823,486.428,104.823z"/>
<path style="fill:#6DC296;" d="M486.428,84.831H26.931c-6.617,0-12.032-5.414-12.032-12.033V92.79
	c0,6.617,5.414,12.033,12.032,12.033h459.497c6.617,0,12.032-5.414,12.032-12.033V72.799
	C498.461,79.416,493.046,84.831,486.428,84.831z"/>
<path style="fill:#FF9052;" d="M273.632,362.362h-33.149c-2.043,0-3.7-1.657-3.7-3.7v-84.51c0-2.043,1.657-3.7,3.7-3.7h33.149
	c2.043,0,3.7,1.657,3.7,3.7v84.51C277.332,360.706,275.676,362.362,273.632,362.362z"/>
<path style="fill:#6DC296;" d="M313.181,362.362h-33.149c-2.043,0-3.7-1.657-3.7-3.7V235.407c0-2.043,1.657-3.7,3.7-3.7h33.149
	c2.043,0,3.7,1.657,3.7,3.7v123.255C316.881,360.706,315.224,362.362,313.181,362.362z"/>
<path style="fill:#ABFFDB;" d="M352.73,362.362h-33.149c-2.043,0-3.7-1.657-3.7-3.7V194.599c0-2.043,1.657-3.7,3.7-3.7h33.149
	c2.043,0,3.7,1.657,3.7,3.7v164.064C356.43,360.706,354.773,362.362,352.73,362.362z"/>
<path style="fill:#FFC850;" d="M392.278,362.362h-33.149c-2.043,0-3.7-1.657-3.7-3.7V148.258c0-2.043,1.657-3.7,3.7-3.7h33.149
	c2.043,0,3.7,1.657,3.7,3.7v210.405C395.978,360.706,394.322,362.362,392.278,362.362z"/>
<path style="fill:#FF8031;" d="M256.558,358.662v-84.51c0-2.044,1.656-3.7,3.7-3.7h-19.774c-2.043,0-3.7,1.657-3.7,3.7v84.51
	c0,2.043,1.657,3.7,3.7,3.7h19.774C258.214,362.362,256.558,360.706,256.558,358.662z"/>
<path style="fill:#5FA77E;" d="M296.107,358.662V235.407c0-2.043,1.656-3.7,3.7-3.7h-19.774c-2.043,0-3.7,1.657-3.7,3.7v123.255
	c0,2.043,1.657,3.7,3.7,3.7h19.774C297.763,362.362,296.107,360.706,296.107,358.662z"/>
<path style="fill:#92E0C0;" d="M335.655,358.662V194.599c0-2.044,1.657-3.7,3.7-3.7h-19.774c-2.043,0-3.7,1.657-3.7,3.7v164.064
	c0,2.043,1.656,3.7,3.7,3.7h19.774C337.312,362.362,335.655,360.706,335.655,358.662z"/>
<path style="fill:#FEA82F;" d="M375.204,358.662V148.258c0-2.043,1.657-3.7,3.7-3.7H359.13c-2.043,0-3.7,1.657-3.7,3.7v210.405
	c0,2.043,1.656,3.7,3.7,3.7h19.774C376.861,362.362,375.204,360.706,375.204,358.662z"/>
<path style="fill:#474D54;" d="M485.781,44.653H275.47V19.47C275.47,8.734,266.737,0,256,0c-10.737,0-19.47,8.734-19.47,19.47
	v25.183H26.219c-10.753,0-19.501,8.748-19.501,19.501v28.167c0,10.753,8.748,19.501,19.501,19.501h4.438v287.571
	c0,11.049,8.987,20.036,20.036,20.036h90.457l-18.616,67.948c-2.843,10.38,3.253,21.081,13.634,23.923
	c10.353,2.836,21.084-3.282,23.921-13.634l8.755-31.955h174.312l8.755,31.955v0.001c2.842,10.375,13.54,16.479,23.921,13.633
	c10.379-2.841,16.478-13.543,13.634-23.922l-18.616-67.949h90.457c11.049,0,20.036-8.987,20.036-20.036V275.627
	c0-4.143-3.357-7.5-7.5-7.5s-7.5,3.357-7.5,7.5v123.768c0,2.776-2.259,5.035-5.035,5.035c-7.37,0-182.86,0-190.124,0
	c-4.143,0-7.5,3.357-7.5,7.5s3.357,7.5,7.5,7.5h59.293l8.57,31.282H172.954l8.57-31.282h54.657c4.143,0,7.5-3.357,7.5-7.5
	s-3.357-7.5-7.5-7.5c-1.342,0-183.671,0-185.488,0c-2.776,0-5.035-2.259-5.035-5.035V111.823h420.684v128.802
	c0,4.143,3.357,7.5,7.5,7.5s7.5-3.357,7.5-7.5V111.823h4.438c10.753,0,19.501-8.748,19.501-19.501V64.154
	C505.282,53.401,496.534,44.653,485.781,44.653z M355.296,419.43l19.702,71.913c0.653,2.383-0.745,4.837-3.13,5.49
	c-2.401,0.653-4.84-0.76-5.489-3.129l-20.35-74.275h9.268V419.43z M165.971,419.43l-20.35,74.274c-0.65,2.377-3.117,3.78-5.49,3.13
	c-2.378-0.652-3.783-3.102-3.129-5.491l19.702-71.912h9.268V419.43z M251.532,19.47c0-2.464,2.005-4.469,4.469-4.469
	s4.469,2.005,4.469,4.469v25.183h-8.938L251.532,19.47L251.532,19.47z M490.281,92.322c0,2.439-2.061,4.5-4.5,4.5
	c-7.059,0-452.402,0-459.561,0c-2.439,0-4.5-2.061-4.5-4.5V64.154c0-2.439,2.061-4.5,4.5-4.5c19.493,0,448.061,0,459.561,0
	c2.439,0,4.5,2.061,4.5,4.5V92.322z"/>
<g>
	<path style="fill:#AFB5BC;" d="M162.82,167.934c4.143,0,7.5-3.358,7.5-7.5c0-4.142-3.357-7.5-7.5-7.5h-39.513
		c-4.143,0-7.5,3.358-7.5,7.5c0,4.142,3.357,7.5,7.5,7.5H162.82z"/>
	<path style="fill:#AFB5BC;" d="M182.576,190.086H103.55c-4.143,0-7.5,3.357-7.5,7.5c0,4.143,3.357,7.5,7.5,7.5h79.026
		c4.143,0,7.5-3.357,7.5-7.5C190.076,193.443,186.719,190.086,182.576,190.086z"/>
	<path style="fill:#AFB5BC;" d="M182.576,227.238H103.55c-4.143,0-7.5,3.357-7.5,7.5c0,4.143,3.357,7.5,7.5,7.5h79.026
		c4.143,0,7.5-3.357,7.5-7.5C190.076,230.595,186.719,227.238,182.576,227.238z"/>
	<path style="fill:#AFB5BC;" d="M182.576,264.391H103.55c-4.143,0-7.5,3.357-7.5,7.5c0,4.143,3.357,7.5,7.5,7.5h79.026
		c4.143,0,7.5-3.357,7.5-7.5C190.076,267.748,186.719,264.391,182.576,264.391z"/>
</g>
<path style="fill:#474D54;" d="M416.462,362.592H215.792c-4.143,0-7.5,3.357-7.5,7.5c0,4.143,3.357,7.5,7.5,7.5
	c41.239,0,155.342,0,200.671,0c4.143,0,7.5-3.357,7.5-7.5C423.963,365.949,420.606,362.592,416.462,362.592"/>
<g>
</g>
<g>
</g>
<g>
</g>
<g>
</g>
<g>
</g>
<g>
</g>
<g>
</g>
<g>
</g>
<g>
</g>
<g>
</g>
<g>
</g>
<g>
</g>
<g>
</g>
<g>
</g>
<g>
</g>
</svg>
